<svg xmlns="http://www.w3.org/2000/svg" width="75" height="75" viewBox="0 0 75 75">
  <path id="iconmonstr-instagram-13_1_" data-name="iconmonstr-instagram-13 (1)" d="M47.6,17.15c-2.634-.119-3.428-.144-10.1-.144s-7.466.025-10.1.144c-6.781.309-9.941,3.522-10.247,10.247-.122,2.638-.15,3.428-.15,10.1s.028,7.466.147,10.1c.309,6.713,3.456,9.938,10.247,10.247,2.634.119,3.428.147,10.1.147s7.469-.025,10.1-.144c6.781-.309,9.938-3.528,10.247-10.247.119-2.638.144-3.428.144-10.1s-.025-7.466-.144-10.1c-.309-6.728-3.472-9.944-10.247-10.253ZM37.5,50.338A12.838,12.838,0,1,1,50.338,37.5,12.837,12.837,0,0,1,37.5,50.338ZM50.847,27.156a3,3,0,1,1,3-3A3,3,0,0,1,50.847,27.156ZM45.834,37.5A8.334,8.334,0,1,1,37.5,29.166,8.334,8.334,0,0,1,45.834,37.5ZM59.375,0H15.625A15.627,15.627,0,0,0,0,15.625v43.75A15.627,15.627,0,0,0,15.625,75h43.75A15.625,15.625,0,0,0,75,59.375V15.625A15.625,15.625,0,0,0,59.375,0ZM62.35,47.806C61.937,56.9,56.878,61.934,47.809,62.35c-2.669.122-3.519.15-10.309.15s-7.638-.028-10.306-.15c-9.087-.416-14.125-5.463-14.544-14.544-.122-2.666-.15-3.516-.15-10.306s.028-7.641.15-10.306c.419-9.087,5.462-14.128,14.544-14.541,2.669-.125,3.516-.153,10.306-.153s7.641.028,10.309.15c9.088.416,14.134,5.472,14.541,14.541.122,2.669.15,3.522.15,10.309S62.472,45.141,62.35,47.806Z"/>
</svg>
