<svg xmlns="http://www.w3.org/2000/svg" width="75" height="75" viewBox="0 0 75 75">
  <path id="iconmonstr-linkedin-3" d="M59.375,0H15.625A15.627,15.627,0,0,0,0,15.625v43.75A15.627,15.627,0,0,0,15.625,75h43.75A15.625,15.625,0,0,0,75,59.375V15.625A15.625,15.625,0,0,0,59.375,0ZM25,59.375H15.625V25H25ZM20.313,21.038a5.513,5.513,0,1,1,5.469-5.513A5.492,5.492,0,0,1,20.313,21.038ZM62.5,59.375H53.125V41.863c0-10.525-12.5-9.728-12.5,0V59.375H31.25V25h9.375v5.516C44.988,22.434,62.5,21.838,62.5,38.253Z"/>
</svg>
